<?xml version="1.0" encoding="UTF-8"?>
<svg id="Calque_1" data-name="Calque 1" xmlns="http://www.w3.org/2000/svg" viewBox="0 0 9.94 8.33">
  <defs>
    <style>
      .cls-1 {
        fill: #ae9b85;
      }

      .cls-2 {
        fill: #77685a;
      }
    </style>
  </defs>
  <path class="cls-1" d="M4.88,4.39c-.2-.39-.47-.69-.82-.9-.35-.21-.73-.31-1.16-.31-.37,0-.69.08-.98.23-.28.15-.51.34-.67.58V1.59H0v6.66h1.26v-.71c.17.23.39.42.67.57.28.15.6.22.98.22.43,0,.81-.11,1.16-.32.34-.22.62-.52.82-.91s.3-.84.3-1.35-.1-.96-.3-1.35ZM3.71,6.53c-.12.22-.29.39-.49.51-.2.12-.42.18-.65.18s-.44-.06-.64-.18c-.2-.12-.36-.29-.49-.51-.12-.22-.18-.48-.18-.78s.06-.56.18-.78.29-.39.49-.51c.2-.12.42-.18.64-.18s.45.06.65.17c.2.11.36.28.49.5.12.22.18.48.18.78s-.06.57-.18.79Z"/>
  <circle class="cls-1" cx="9.31" cy=".63" r=".63"/>
  <polygon class="cls-2" points="8.52 5.41 8.52 6.16 6.82 8.28 5.19 8.28 7.4 5.8 5.2 3.29 6.84 3.29 8.52 5.41"/>
  <polygon class="cls-2" points="9.94 1.62 9.94 8.28 9.54 8.28 9.54 3.23 9.11 3.23 9.11 8.28 8.68 8.28 8.68 1.62 9.94 1.62"/>
</svg>