<svg width="212" height="50" viewBox="0 0 212 50" fill="none" xmlns="http://www.w3.org/2000/svg">
<rect width="212" height="50" rx="6" fill="white"/>
<g clip-path="url(#clip0_7621_5718)">
<mask id="mask0_7621_5718" style="mask-type:luminance" maskUnits="userSpaceOnUse" x="16" y="8" width="33" height="34">
<path d="M45.0597 8H19.9403C17.7641 8 16 9.76491 16 11.942V38.058C16 40.2351 17.7641 42 19.9403 42H45.0597C47.2359 42 49 40.2351 49 38.058V11.942C49 9.76491 47.2359 8 45.0597 8Z" fill="white"/>
</mask>
<g mask="url(#mask0_7621_5718)">
<path d="M48.0272 54.1833H16.9728C16.431 54.1833 16 53.7522 16 53.2101V8.97319C16 8.43116 16.431 8 16.9728 8H48.0272C48.569 8 49 8.43116 49 8.97319V53.2101C49 53.7399 48.569 54.1833 48.0272 54.1833Z" fill="#262626"/>
<path d="M44.555 18.6803C44.555 18.323 44.2964 17.8795 43.9886 17.7071L33.0543 11.3998C32.7464 11.215 32.2416 11.215 31.9337 11.3998L21.0117 17.7071C20.7039 17.8795 20.4453 18.323 20.4453 18.6803V31.3071C20.4453 31.6643 20.7039 32.1078 21.0117 32.2803L31.9461 38.5875C32.2539 38.76 32.7587 38.76 33.0666 38.5875L44.0009 32.2803C44.3087 32.1078 44.5673 31.6643 44.5673 31.3071L44.555 18.6803Z" fill="white"/>
<path d="M38.2499 24.8031L35.3809 29.0161L33.9033 26.7618L35.6025 24.2241C35.9227 23.7683 36.5876 22.5364 35.8119 20.8364C35.1839 19.4567 33.8171 18.7915 32.6104 18.7915C31.416 18.7915 30.0984 19.4074 29.4089 20.8364C28.6208 22.4625 29.3104 23.756 29.6059 24.1748C29.6059 24.1748 30.5417 25.5545 31.3421 26.7248L32.6227 28.5727L34.5436 31.5169C34.5559 31.5415 34.8637 32.0096 35.4055 32.0096C35.9227 32.0096 36.2305 31.5538 36.2675 31.4922L40.7742 24.8277H38.2499V24.8031ZM32.5981 24.9016C32.5981 24.9016 31.847 23.756 31.3544 22.9676C30.8373 22.1176 31.416 20.8364 32.5981 20.8364C33.7802 20.8364 34.3589 22.1053 33.8417 22.9676C33.3492 23.7683 32.5981 24.9016 32.5981 24.9016Z" fill="url(#paint0_radial_7621_5718)"/>
<path d="M29.8284 28.868L27.0086 24.9014C27.0086 24.9014 26.2575 23.7557 25.765 22.955C25.2478 22.105 25.8265 20.8238 27.0086 20.8238C27.1564 20.8238 27.2918 20.8485 27.4273 20.8854L28.4247 19.0623C27.9691 18.8652 27.4888 18.7666 27.0332 18.7666C25.8388 18.7666 24.5213 19.3825 23.8317 20.8115C23.0437 22.4376 23.7332 23.7311 24.0288 24.1499L28.9664 31.455C29.0034 31.5166 29.3235 31.9847 29.8407 31.9847C30.3702 31.9847 30.6657 31.5289 30.7026 31.4796L32.1926 29.213L30.912 27.3282L29.8284 28.868Z" fill="url(#paint1_radial_7621_5718)"/>
</g>
</g>
<path d="M62.75 25.7578H59.7891V24.2031H62.75C63.2656 24.2031 63.6823 24.1198 64 23.9531C64.3177 23.7865 64.5495 23.5573 64.6953 23.2656C64.8464 22.9688 64.9219 22.6302 64.9219 22.25C64.9219 21.8906 64.8464 21.5547 64.6953 21.2422C64.5495 20.9245 64.3177 20.6693 64 20.4766C63.6823 20.2839 63.2656 20.1875 62.75 20.1875H60.3906V30H58.4297V18.625H62.75C63.6302 18.625 64.3776 18.7812 64.9922 19.0938C65.612 19.401 66.0833 19.8281 66.4062 20.375C66.7292 20.9167 66.8906 21.5365 66.8906 22.2344C66.8906 22.9688 66.7292 23.599 66.4062 24.125C66.0833 24.651 65.612 25.0547 64.9922 25.3359C64.3776 25.6172 63.6302 25.7578 62.75 25.7578ZM73.6328 28.3047V24.2734C73.6328 23.9714 73.5781 23.7109 73.4688 23.4922C73.3594 23.2734 73.1927 23.1042 72.9688 22.9844C72.75 22.8646 72.474 22.8047 72.1406 22.8047C71.8333 22.8047 71.5677 22.8568 71.3438 22.9609C71.1198 23.0651 70.9453 23.2057 70.8203 23.3828C70.6953 23.5599 70.6328 23.7604 70.6328 23.9844H68.7578C68.7578 23.651 68.8385 23.3281 69 23.0156C69.1615 22.7031 69.3958 22.4245 69.7031 22.1797C70.0104 21.9349 70.3776 21.7422 70.8047 21.6016C71.2318 21.4609 71.7109 21.3906 72.2422 21.3906C72.8776 21.3906 73.4401 21.4974 73.9297 21.7109C74.4245 21.9245 74.8125 22.2474 75.0938 22.6797C75.3802 23.1068 75.5234 23.6432 75.5234 24.2891V28.0469C75.5234 28.4323 75.5495 28.7786 75.6016 29.0859C75.6589 29.388 75.7396 29.651 75.8438 29.875V30H73.9141C73.8255 29.7969 73.7552 29.5391 73.7031 29.2266C73.6562 28.9089 73.6328 28.6016 73.6328 28.3047ZM73.9062 24.8594L73.9219 26.0234H72.5703C72.2214 26.0234 71.9141 26.0573 71.6484 26.125C71.3828 26.1875 71.1615 26.2812 70.9844 26.4062C70.8073 26.5312 70.6745 26.6823 70.5859 26.8594C70.4974 27.0365 70.4531 27.237 70.4531 27.4609C70.4531 27.6849 70.5052 27.8906 70.6094 28.0781C70.7135 28.2604 70.8646 28.4036 71.0625 28.5078C71.2656 28.612 71.5104 28.6641 71.7969 28.6641C72.1823 28.6641 72.5182 28.5859 72.8047 28.4297C73.0964 28.2682 73.3255 28.0729 73.4922 27.8438C73.6589 27.6094 73.7474 27.388 73.7578 27.1797L74.3672 28.0156C74.3047 28.2292 74.1979 28.4583 74.0469 28.7031C73.8958 28.9479 73.6979 29.1823 73.4531 29.4062C73.2135 29.625 72.9245 29.8047 72.5859 29.9453C72.2526 30.0859 71.8672 30.1562 71.4297 30.1562C70.8776 30.1562 70.3854 30.0469 69.9531 29.8281C69.5208 29.6042 69.1823 29.3047 68.9375 28.9297C68.6927 28.5495 68.5703 28.1198 68.5703 27.6406C68.5703 27.1927 68.6536 26.7969 68.8203 26.4531C68.9922 26.1042 69.2422 25.8125 69.5703 25.5781C69.9036 25.3438 70.3099 25.1667 70.7891 25.0469C71.2682 24.9219 71.8151 24.8594 72.4297 24.8594H73.9062ZM80.3203 29.0781L82.6172 21.5469H84.6328L81.2422 31.2891C81.1641 31.4974 81.0625 31.724 80.9375 31.9688C80.8125 32.2135 80.6484 32.4453 80.4453 32.6641C80.2474 32.888 80 33.0677 79.7031 33.2031C79.4062 33.3438 79.0469 33.4141 78.625 33.4141C78.4583 33.4141 78.2969 33.3984 78.1406 33.3672C77.9896 33.3411 77.8464 33.3125 77.7109 33.2812L77.7031 31.8438C77.7552 31.849 77.8177 31.8542 77.8906 31.8594C77.9688 31.8646 78.0312 31.8672 78.0781 31.8672C78.3906 31.8672 78.651 31.8281 78.8594 31.75C79.0677 31.6771 79.237 31.5573 79.3672 31.3906C79.5026 31.224 79.6172 31 79.7109 30.7188L80.3203 29.0781ZM79.0234 21.5469L81.0312 27.875L81.3672 29.8594L80.0625 30.1953L76.9922 21.5469H79.0234ZM89.8281 30.1562C89.2031 30.1562 88.638 30.0547 88.1328 29.8516C87.6328 29.6432 87.2057 29.3542 86.8516 28.9844C86.5026 28.6146 86.2344 28.1797 86.0469 27.6797C85.8594 27.1797 85.7656 26.6406 85.7656 26.0625V25.75C85.7656 25.0885 85.862 24.4896 86.0547 23.9531C86.2474 23.4167 86.5156 22.9583 86.8594 22.5781C87.2031 22.1927 87.6094 21.8984 88.0781 21.6953C88.5469 21.4922 89.0547 21.3906 89.6016 21.3906C90.2057 21.3906 90.7344 21.4922 91.1875 21.6953C91.6406 21.8984 92.0156 22.1849 92.3125 22.5547C92.6146 22.9193 92.8385 23.3542 92.9844 23.8594C93.1354 24.3646 93.2109 24.9219 93.2109 25.5312V26.3359H86.6797V24.9844H91.3516V24.8359C91.3411 24.4974 91.2734 24.1797 91.1484 23.8828C91.0286 23.5859 90.8438 23.3464 90.5938 23.1641C90.3438 22.9818 90.0104 22.8906 89.5938 22.8906C89.2812 22.8906 89.0026 22.9583 88.7578 23.0938C88.5182 23.224 88.3177 23.4141 88.1562 23.6641C87.9948 23.9141 87.8698 24.2161 87.7812 24.5703C87.6979 24.9193 87.6562 25.3125 87.6562 25.75V26.0625C87.6562 26.4323 87.7057 26.776 87.8047 27.0938C87.9089 27.4062 88.0599 27.6797 88.2578 27.9141C88.4557 28.1484 88.6953 28.3333 88.9766 28.4688C89.2578 28.599 89.5781 28.6641 89.9375 28.6641C90.3906 28.6641 90.7943 28.5729 91.1484 28.3906C91.5026 28.2083 91.8099 27.9505 92.0703 27.6172L93.0625 28.5781C92.8802 28.8438 92.6432 29.099 92.3516 29.3438C92.0599 29.5833 91.7031 29.7786 91.2812 29.9297C90.8646 30.0807 90.3802 30.1562 89.8281 30.1562ZM97.0703 23.1562V30H95.1875V21.5469H96.9844L97.0703 23.1562ZM99.6562 21.4922L99.6406 23.2422C99.526 23.2214 99.401 23.2057 99.2656 23.1953C99.1354 23.1849 99.0052 23.1797 98.875 23.1797C98.5521 23.1797 98.2682 23.2266 98.0234 23.3203C97.7786 23.4089 97.5729 23.5391 97.4062 23.7109C97.2448 23.8776 97.1198 24.0807 97.0312 24.3203C96.9427 24.5599 96.8906 24.8281 96.875 25.125L96.4453 25.1562C96.4453 24.625 96.4974 24.1328 96.6016 23.6797C96.7057 23.2266 96.862 22.8281 97.0703 22.4844C97.2839 22.1406 97.5495 21.8724 97.8672 21.6797C98.1901 21.487 98.5625 21.3906 98.9844 21.3906C99.099 21.3906 99.2214 21.401 99.3516 21.4219C99.487 21.4427 99.5885 21.4661 99.6562 21.4922ZM110.586 28.3047V24.2734C110.586 23.9714 110.531 23.7109 110.422 23.4922C110.312 23.2734 110.146 23.1042 109.922 22.9844C109.703 22.8646 109.427 22.8047 109.094 22.8047C108.786 22.8047 108.521 22.8568 108.297 22.9609C108.073 23.0651 107.898 23.2057 107.773 23.3828C107.648 23.5599 107.586 23.7604 107.586 23.9844H105.711C105.711 23.651 105.792 23.3281 105.953 23.0156C106.115 22.7031 106.349 22.4245 106.656 22.1797C106.964 21.9349 107.331 21.7422 107.758 21.6016C108.185 21.4609 108.664 21.3906 109.195 21.3906C109.831 21.3906 110.393 21.4974 110.883 21.7109C111.378 21.9245 111.766 22.2474 112.047 22.6797C112.333 23.1068 112.477 23.6432 112.477 24.2891V28.0469C112.477 28.4323 112.503 28.7786 112.555 29.0859C112.612 29.388 112.693 29.651 112.797 29.875V30H110.867C110.779 29.7969 110.708 29.5391 110.656 29.2266C110.609 28.9089 110.586 28.6016 110.586 28.3047ZM110.859 24.8594L110.875 26.0234H109.523C109.174 26.0234 108.867 26.0573 108.602 26.125C108.336 26.1875 108.115 26.2812 107.938 26.4062C107.76 26.5312 107.628 26.6823 107.539 26.8594C107.451 27.0365 107.406 27.237 107.406 27.4609C107.406 27.6849 107.458 27.8906 107.562 28.0781C107.667 28.2604 107.818 28.4036 108.016 28.5078C108.219 28.612 108.464 28.6641 108.75 28.6641C109.135 28.6641 109.471 28.5859 109.758 28.4297C110.049 28.2682 110.279 28.0729 110.445 27.8438C110.612 27.6094 110.701 27.388 110.711 27.1797L111.32 28.0156C111.258 28.2292 111.151 28.4583 111 28.7031C110.849 28.9479 110.651 29.1823 110.406 29.4062C110.167 29.625 109.878 29.8047 109.539 29.9453C109.206 30.0859 108.82 30.1562 108.383 30.1562C107.831 30.1562 107.339 30.0469 106.906 29.8281C106.474 29.6042 106.135 29.3047 105.891 28.9297C105.646 28.5495 105.523 28.1198 105.523 27.6406C105.523 27.1927 105.607 26.7969 105.773 26.4531C105.945 26.1042 106.195 25.8125 106.523 25.5781C106.857 25.3438 107.263 25.1667 107.742 25.0469C108.221 24.9219 108.768 24.8594 109.383 24.8594H110.859ZM117.57 28.5078L119.641 21.5469H121.594L118.656 30H117.438L117.57 28.5078ZM115.984 21.5469L118.094 28.5391L118.195 30H116.977L114.023 21.5469H115.984ZM126.875 30.1562C126.25 30.1562 125.685 30.0547 125.18 29.8516C124.68 29.6432 124.253 29.3542 123.898 28.9844C123.549 28.6146 123.281 28.1797 123.094 27.6797C122.906 27.1797 122.812 26.6406 122.812 26.0625V25.75C122.812 25.0885 122.909 24.4896 123.102 23.9531C123.294 23.4167 123.562 22.9583 123.906 22.5781C124.25 22.1927 124.656 21.8984 125.125 21.6953C125.594 21.4922 126.102 21.3906 126.648 21.3906C127.253 21.3906 127.781 21.4922 128.234 21.6953C128.688 21.8984 129.062 22.1849 129.359 22.5547C129.661 22.9193 129.885 23.3542 130.031 23.8594C130.182 24.3646 130.258 24.9219 130.258 25.5312V26.3359H123.727V24.9844H128.398V24.8359C128.388 24.4974 128.32 24.1797 128.195 23.8828C128.076 23.5859 127.891 23.3464 127.641 23.1641C127.391 22.9818 127.057 22.8906 126.641 22.8906C126.328 22.8906 126.049 22.9583 125.805 23.0938C125.565 23.224 125.365 23.4141 125.203 23.6641C125.042 23.9141 124.917 24.2161 124.828 24.5703C124.745 24.9193 124.703 25.3125 124.703 25.75V26.0625C124.703 26.4323 124.753 26.776 124.852 27.0938C124.956 27.4062 125.107 27.6797 125.305 27.9141C125.503 28.1484 125.742 28.3333 126.023 28.4688C126.305 28.599 126.625 28.6641 126.984 28.6641C127.438 28.6641 127.841 28.5729 128.195 28.3906C128.549 28.2083 128.857 27.9505 129.117 27.6172L130.109 28.5781C129.927 28.8438 129.69 29.099 129.398 29.3438C129.107 29.5833 128.75 29.7786 128.328 29.9297C127.911 30.0807 127.427 30.1562 126.875 30.1562ZM135.68 28.6562C135.987 28.6562 136.263 28.5964 136.508 28.4766C136.758 28.3516 136.958 28.1797 137.109 27.9609C137.266 27.7422 137.352 27.4896 137.367 27.2031H139.141C139.13 27.75 138.969 28.2474 138.656 28.6953C138.344 29.1432 137.93 29.5 137.414 29.7656C136.898 30.026 136.328 30.1562 135.703 30.1562C135.057 30.1562 134.495 30.0469 134.016 29.8281C133.536 29.6042 133.138 29.2969 132.82 28.9062C132.503 28.5156 132.263 28.0651 132.102 27.5547C131.945 27.0443 131.867 26.4974 131.867 25.9141V25.6406C131.867 25.0573 131.945 24.5104 132.102 24C132.263 23.4844 132.503 23.0312 132.82 22.6406C133.138 22.25 133.536 21.9453 134.016 21.7266C134.495 21.5026 135.055 21.3906 135.695 21.3906C136.372 21.3906 136.966 21.526 137.477 21.7969C137.987 22.0625 138.388 22.4349 138.68 22.9141C138.977 23.388 139.13 23.9401 139.141 24.5703H137.367C137.352 24.2578 137.273 23.9766 137.133 23.7266C136.997 23.4714 136.805 23.2682 136.555 23.1172C136.31 22.9661 136.016 22.8906 135.672 22.8906C135.292 22.8906 134.977 22.9688 134.727 23.125C134.477 23.276 134.281 23.4844 134.141 23.75C134 24.0104 133.898 24.3047 133.836 24.6328C133.779 24.9557 133.75 25.2917 133.75 25.6406V25.9141C133.75 26.263 133.779 26.6016 133.836 26.9297C133.893 27.2578 133.992 27.5521 134.133 27.8125C134.279 28.0677 134.477 28.2734 134.727 28.4297C134.977 28.5807 135.294 28.6562 135.68 28.6562ZM150.062 18.625V30H148.117V18.625H150.062ZM153.633 18.625V20.1875H144.578V18.625H153.633ZM158.609 27.4453L160.875 18.625H162.062L161.93 20.8984L159.508 30H158.273L158.609 27.4453ZM156.914 18.625L158.75 27.375L158.914 30H157.602L154.969 18.625H156.914ZM164.633 27.3516L166.445 18.625H168.398L165.766 30H164.453L164.633 27.3516ZM162.523 18.625L164.766 27.4688L165.094 30H163.859L161.477 20.8984L161.352 18.625H162.523ZM172.445 18.625V30H170.484V18.625H172.445ZM184.406 18.625V30H182.445L177.344 21.8516V30H175.383V18.625H177.344L182.461 26.7891V18.625H184.406ZM191.688 18.625V30H189.742V18.625H191.688ZM195.258 18.625V20.1875H186.203V18.625H195.258Z" fill="#262626"/>
<defs>
<radialGradient id="paint0_radial_7621_5718" cx="0" cy="0" r="1" gradientUnits="userSpaceOnUse" gradientTransform="translate(23.3571 12.0413) scale(37.3344 46.3884)">
<stop stop-color="#FFCC00"/>
<stop offset="0.0915684" stop-color="#FFC800"/>
<stop offset="0.1739" stop-color="#FFBD00"/>
<stop offset="0.2528" stop-color="#FFAB00"/>
<stop offset="0.3295" stop-color="#FF9100"/>
<stop offset="0.4046" stop-color="#FF7000"/>
<stop offset="0.4786" stop-color="#FF4700"/>
<stop offset="0.5503" stop-color="#FF1800"/>
<stop offset="0.5822" stop-color="#FF0000"/>
<stop offset="1" stop-color="#FF0000"/>
</radialGradient>
<radialGradient id="paint1_radial_7621_5718" cx="0" cy="0" r="1" gradientUnits="userSpaceOnUse" gradientTransform="translate(23.6603 20.7117) scale(12.1684 12.1737)">
<stop stop-color="#00B4E6"/>
<stop offset="0.201" stop-color="#00B0E3"/>
<stop offset="0.3898" stop-color="#01A5DB"/>
<stop offset="0.5737" stop-color="#0292CD"/>
<stop offset="0.7546" stop-color="#0377BA"/>
<stop offset="0.9316" stop-color="#0455A1"/>
<stop offset="1" stop-color="#054696"/>
</radialGradient>
<clipPath id="clip0_7621_5718">
<rect width="33" height="34" fill="white" transform="translate(16 8)"/>
</clipPath>
</defs>
</svg>